<svg width="23" height="17" viewBox="0 0 23 17" fill="none" xmlns="http://www.w3.org/2000/svg">
<path fill-rule="evenodd" clip-rule="evenodd" d="M0 1.15C0 0.514873 0.514872 0 1.15 0H21.85C22.4851 0 23 0.514873 23 1.15C23 1.78513 22.4851 2.3 21.85 2.3H1.15C0.514873 2.3 0 1.78513 0 1.15ZM0 8.05C0 7.41487 0.514872 6.9 1.15 6.9H21.85C22.4851 6.9 23 7.41487 23 8.05C23 8.68513 22.4851 9.2 21.85 9.2H1.15C0.514873 9.2 0 8.68513 0 8.05ZM1.15 13.8C0.514872 13.8 0 14.3149 0 14.95C0 15.5851 0.514873 16.1 1.15 16.1H21.85C22.4851 16.1 23 15.5851 23 14.95C23 14.3149 22.4851 13.8 21.85 13.8H1.15Z" fill="#1A1A1A"/>
</svg>
